<svg xmlns="http://www.w3.org/2000/svg" width="108.824" height="109" viewBox="0 0 108.824 109">
  <g id="login" transform="translate(-0.176)">
    <g id="Layer_1" data-name="Layer 1">
      <path id="Path_204" data-name="Path 204" d="M49.1,109A16.44,16.44,0,0,1,32.68,92.61V84a3.44,3.44,0,0,1,6.87,0v8.66a9.56,9.56,0,0,0,9.55,9.55H92.61a9.56,9.56,0,0,0,9.55-9.55V16.42a9.56,9.56,0,0,0-9.55-9.56H49.1a9.56,9.56,0,0,0-9.55,9.56v8.66a3.44,3.44,0,0,1-6.87,0V16.42A16.44,16.44,0,0,1,49.1,0H92.61A16.44,16.44,0,0,1,109,16.42V92.61A16.44,16.44,0,0,1,92.61,109Zm1.95-36.8a3.43,3.43,0,0,1-2.42-5.87L57.12,58H3.43a3.44,3.44,0,0,1,0-6.87H57.12l-8.49-8.42a3.37,3.37,0,0,1-1-2.42,3.44,3.44,0,0,1,5.85-2.45l9.77,9.7a9.89,9.89,0,0,1,0,14l-9.77,9.7a3.43,3.43,0,0,1-2.43.99Z" fill="#a0accc"/>
    </g>
  </g>
</svg>
