<svg xmlns="http://www.w3.org/2000/svg" width="145.19" height="102.763" viewBox="0 0 145.19 102.763">
  <g id="rate" transform="translate(0 0)">
    <g id="Layer_1" data-name="Layer 1">
      <path id="Path_205" data-name="Path 205" d="M136.51,0H43.28c-3.7,0-3.7,5.76,0,5.76h93.23a2.88,2.88,0,0,1,2.88,2.88v68a2.88,2.88,0,0,1-2.88,2.88H86.1a2.89,2.89,0,0,0-2.26,1.09L72.23,95.37,59.91,80.59a2.9,2.9,0,0,0-2.21-1H8.64a2.88,2.88,0,0,1-2.88-2.88v-68A2.88,2.88,0,0,1,8.64,5.76h11c3.7,0,3.71-5.76,0-5.76h-11A8.64,8.64,0,0,0,0,8.64v68a8.65,8.65,0,0,0,8.64,8.64H56.35l13.73,16.46a2.9,2.9,0,0,0,4.47-.06l13-16.4h49a8.65,8.65,0,0,0,8.64-8.64v-68A8.64,8.64,0,0,0,136.51,0Z" fill="#a0accc"/>
      <path id="Path_206" data-name="Path 206" d="M15.94,37.05a2.88,2.88,0,0,0,.53,2.72l5.6,6.77-.56,8.77c-.43,6.87,9.88-.42,12.11-.38s12.54,7.17,12.1.38l-.55-8.77,5.6-6.77a2.91,2.91,0,0,0-1.5-4.62L40.76,33l-4.71-7.43a2.92,2.92,0,0,0-4.86,0L26.48,33,18,35.15a2.88,2.88,0,0,0-2,1.9ZM29,38.26c2.13-.54,3.53-4.11,4.6-5.8,1.05,1.67,2.49,5.26,4.6,5.8l5.22,1.34L40,43.75a2.83,2.83,0,0,0-.65,2l.34,5.37-5-2a2.88,2.88,0,0,0-2.12,0l-5,2,.34-5.37a2.84,2.84,0,0,0-.66-2L23.8,39.6Z" fill="#a0accc"/>
      <path id="Path_207" data-name="Path 207" d="M90,37.05a2.86,2.86,0,0,0-2-1.9L79.42,33l-4.7-7.43a2.92,2.92,0,0,0-4.86,0L65.15,33l-8.51,2.18a2.87,2.87,0,0,0-1.51,4.62l5.61,6.77-.56,8.77c-.43,6.87,9.88-.42,12.11-.38s12.53,7.17,12.1.38l-.56-8.77,5.61-6.77A2.86,2.86,0,0,0,90,37.05Zm-11.29,6.7a2.83,2.83,0,0,0-.65,2l.34,5.37c-1.8-.71-4.1-2.19-6.07-2.19s-4.33,1.5-6.11,2.21l.34-5.37a2.84,2.84,0,0,0-.66-2L62.47,39.6l5.22-1.34c2.12-.54,3.53-4.11,4.6-5.8,1,1.67,2.49,5.26,4.6,5.8l5.22,1.34Z" fill="#a0accc"/>
      <path id="Path_208" data-name="Path 208" d="M128.63,37.05a2.86,2.86,0,0,0-2-1.9L118.09,33l-4.7-7.43a2.93,2.93,0,0,0-4.87,0L103.82,33l-8.51,2.18A2.92,2.92,0,0,0,93.8,39.8l5.61,6.77-.56,8.77c-.44,6.87,9.88-.43,12.11-.38s12.53,7.18,12.1.38l-.56-8.77,5.61-6.77a2.86,2.86,0,0,0,.52-2.72Zm-11.29,6.7a2.89,2.89,0,0,0-.66,2l.35,5.37-5-2a2.9,2.9,0,0,0-2.13,0l-5,2,.34-5.37a2.84,2.84,0,0,0-.66-2l-3.43-4.15,5.21-1.34c2.13-.54,3.53-4.11,4.61-5.8,1.05,1.67,2.49,5.26,4.6,5.8l5.22,1.34Z" fill="#a0accc"/>
      <path id="Path_209" data-name="Path 209" d="M29.9,5.27a2.9,2.9,0,0,0,4.37-3.16,2.88,2.88,0,0,0-5.46-.27A2.91,2.91,0,0,0,29.9,5.27Z" fill="#a0accc"/>
    </g>
  </g>
</svg>
