<svg xmlns="http://www.w3.org/2000/svg" viewBox="0 0 157.91 138.43"><defs><style>.cls-1{fill:#a0accc;}</style></defs><g id="Layer_2" data-name="Layer 2"><g id="Layer_2-2" data-name="Layer 2"><circle class="cls-1" cx="88.39" cy="31.5" r="4.71"/><path class="cls-1" d="M88.39,34.71A3.21,3.21,0,1,1,91.6,31.5,3.22,3.22,0,0,1,88.39,34.71Z"/><circle class="cls-1" cx="107.24" cy="31.5" r="4.71"/><path class="cls-1" d="M107.24,34.71a3.21,3.21,0,1,1,3.22-3.21A3.21,3.21,0,0,1,107.24,34.71Z"/><circle class="cls-1" cx="126.1" cy="31.5" r="4.71"/><path class="cls-1" d="M126.1,34.71a3.21,3.21,0,1,1,3.21-3.21A3.22,3.22,0,0,1,126.1,34.71Z"/><path class="cls-1" d="M104.48,138.43c-25.68,0-52.08-11.62-72.43-31.89S0,59.91,0,34.26A12.62,12.62,0,0,1,12.64,21.69H31.5a3.22,3.22,0,0,1,3,2.19L44,52.1a3.2,3.2,0,0,1-.38,2.8L35.13,67.61l.37.77c6.26,13.06,21.57,28.24,34.87,34.55l.76.37,12.71-8.48a3.28,3.28,0,0,1,2.8-.37l28.22,9.43a3.22,3.22,0,0,1,2.2,3.05v18.85A12.62,12.62,0,0,1,104.48,138.43ZM12.64,28.11a6.11,6.11,0,0,0-6.21,6.15C6.43,84.5,54.08,132,104.48,132a6.12,6.12,0,0,0,6.15-6.22V109.24L86.1,101.05,73.26,109.6a3.13,3.13,0,0,1-1.78.54,3.23,3.23,0,0,1-1.19-.23c-7.7-3.08-16.38-9.17-24.45-17.14S31.58,76.11,28.52,68.45a3.17,3.17,0,0,1,.31-3l8.55-12.84L29.19,28.11Z"/><path class="cls-1" d="M88.38,81.86a3.24,3.24,0,0,1-3.21-3.22V62.86l-1.29-.18A31.5,31.5,0,0,1,88.39,0H126.1a31.69,31.69,0,0,1,31.81,31.5A31.69,31.69,0,0,1,126.1,63H108.57L90.66,80.92a3.24,3.24,0,0,1-2.28.94Zm0-75.43a25.07,25.07,0,1,0,0,50.14,3.22,3.22,0,0,1,3.21,3.22V70.88L105,57.51a3.22,3.22,0,0,1,2.27-.94H126.1A25.25,25.25,0,0,0,151.48,31.5,25.25,25.25,0,0,0,126.1,6.43Z"/></g></g></svg>