<svg id="Layer_3" data-name="Layer 3" xmlns="http://www.w3.org/2000/svg" viewBox="0 0 350.12 349.57"><defs><style>.cls-1{fill:#a0accc;}</style></defs><path class="cls-1" d="M153.56,82.43A13.34,13.34,0,0,0,147,89c-1.29,2.58-1.44,4.79-1.44,26.77v24l-27.61.23-27.6.22-3.12,2.06a14,14,0,0,0-4.71,5.4l-1.6,3.34.15,94.68.23,94.74,2.36,3a22,22,0,0,0,4.94,4.41c2.51,1.52,4.34,1.52,104.26,1.9l101.59.38-1.67,2.13-1.68,2.05-17.18-1.59-17.11-1.68-3.58,1.68c-5.09,2.51-7.6,7-7.14,12.92.45,6.7,2.28,8.52,19.84,20.23,11.71,7.76,15.9,10.95,17.57,13.46,1.22,1.83,5.32,8.06,9.05,13.92s7.83,11.78,9.12,13.08a14.19,14.19,0,0,0,12.47,4.41c4.72-.69,9.74-5.4,10.57-9.89.31-1.82-.07-9.43-1.06-19l-1.52-15.89,4.64-4.26c2.58-2.28,10.64-9.81,17.94-16.65,9.66-9.13,13.39-12.17,13.77-11.41s4.56,14.75,9.5,31.48,9.35,31.25,9.89,32.32c2.35,4.56,6.84,7.07,12.54,7.07,6.47,0,10.8-2.89,13.31-8.9,1.29-3,1.14-6.84-2.58-88.66l-.69-14.07,9.35-9c10.88-10.34,15.59-17,18.94-26.31,2-5.78,2.28-7.61,2.28-15.36.08-8.52,0-8.82-2.13-11.64a17,17,0,0,0-5.63-4.48c-7-3.05-22.88-.38-33.38,5.62l-4,2.28V203.49c0-32.32-.3-51.41-.76-53.23a14.66,14.66,0,0,0-8-9c-2.74-1.29-5.48-1.45-29.43-1.45H321.24V116.34c0-21.06-.16-23.65-1.45-26.38-1.67-3.58-4.87-6.77-7.91-7.91-1.44-.61-26.54-.84-79.08-.84C164.51,81.21,155.62,81.36,153.56,82.43Zm154,10.42,1.9,1,.23,23,.15,23h-9.89v-17.1c0-16.13-.07-17.19-1.52-18.64s-2.51-1.52-64.56-1.52c-60.91,0-63.11.08-64.79,1.45s-1.82,1.6-2,18.63l-.23,17.18H157l.16-23,.22-23,1.91-1c1.52-.76,17.41-1,74.14-1S306,92.09,307.55,92.85Zm-19,34v12.92H178.28V113.91H288.54Zm85.16,25.85c.54.91.69,11.79.61,32l-.23,30.64-6.84,1.75c-28.36,7.22-72.09,13.92-99.77,15.21l-10.11.45V230a14.91,14.91,0,0,0-8.75-13.46c-4.48-2.05-25.93-2.05-30.41,0A14.93,14.93,0,0,0,209.45,230v2.74l-7.37-.46c-35.06-2.43-66.46-7.15-105.7-15.81l-4-.92V184.25c0-23.27.23-31.48.91-32.17s32.93-.91,140.3-.91C371,151.17,372.87,151.17,373.7,152.69Zm-129,75.44c.91,1.29,1.21,3.8,1.21,11.17,0,12.7.46,12.25-12.39,12.25-13.23,0-12.7.53-12.7-12.63,0-8.13.23-10.34,1.22-11.25s3.11-1.22,11.33-1.22C243.06,226.45,243.67,226.53,244.74,228.13ZM106.8,230.56c30.56,6.77,65.16,11.63,92.46,13.08l10,.53.31,4.79c.3,5.32,1.52,7.45,6.23,11.26l2.89,2.35h29.35l3-2.35c4-3.27,5.63-6.39,6.08-11.71l.46-4.57H263c11.71,0,42.28-3.19,62.43-6.54,15.59-2.58,40.3-7.68,47.68-9.88,1.29-.38,1.37.83,1.37,18.48v18.85l-5.18,5.63-5.17,5.63L316,274c-26.46-1.14-49.81-1.9-51.79-1.75-9.35.91-14.75,11.1-10.72,20.08,2.59,5.7,4.11,6.31,37.72,16.19,17.18,5.1,31.63,9.36,32.16,9.58.69.23-2.35,4-8.28,10.27l-9.28,9.89H200.25c-94.9,0-105.62-.16-106.69-1.22s-1.21-7.15-1.21-55.51c0-51.48.07-54.37,1.37-54C94.4,227.75,100.33,229.11,106.8,230.56Zm311.85,26.31c2.73,1.52,1.44,12.62-2.44,21-2.66,5.62-6.46,10.11-16.65,19.69-5.25,4.95-9.73,9.36-10,9.81s.53,22.81,1.75,49.51,2.13,50.18,2.05,52c-.22,3.95-2.13,5.7-4,3.88-.6-.69-5.78-16.88-11.4-36.12s-10.72-36.12-11.41-37.42c-1.37-3-4.18-4-7.22-2.43-1.22.61-10,8.44-19.55,17.41s-19.77,18.56-22.81,21.14a57,57,0,0,0-5.78,5.71c-.15.53.46,9,1.45,18.78s1.67,18.33,1.44,18.78c-1,2.82-3.42.38-11.56-11.78-4.71-7-9.58-14.22-10.8-16-1.67-2.28-6.91-6.24-18.32-13.84-15.06-10-17.64-12.32-14.91-13.39.61-.22,7.53.16,15.44.76s16.27,1.22,18.56,1.22h4.18l5.4-6.23c3-3.5,12.77-14.15,21.82-23.73,15.44-16.43,16.43-17.64,16.43-20.3,0-2.13-.46-3.27-1.68-4.19-1-.68-18.17-6.08-38.25-12-36-10.57-36.5-10.72-36.72-12.78-.16-1.36.22-2.28,1.14-2.73s19.31.07,51.63,1.59c27.68,1.22,51.1,2.06,52.09,1.83s5.55-4.56,10.19-9.43,9.88-10.27,11.78-11.86a42,42,0,0,1,18.33-8.52C415.91,256,416.82,256,418.65,256.87Z" transform="translate(-80.94 -81.21)"/></svg>