<svg id="Layer_5" data-name="Layer 5" xmlns="http://www.w3.org/2000/svg" viewBox="0 0 288.09 399.09"><defs><style>.cls-1{fill:#a0accc;}</style></defs><path class="cls-1" d="M234.14,57.5c-46.84,7.26-88.38,38.18-108.37,80.74-14.52,30.91-17.65,65.19-9.14,99.23,6.72,26.47,19.37,51,40.06,77.46,3.59,4.68,6.48,8.51,6.32,8.66s-2.42,1.33-5,2.81c-19.91,10.94-33.27,26-37.4,41.93-1.56,6.09-1.64,18-.08,24,4.45,17,20.61,33.65,43.64,44.9,16.24,8,33.73,13.19,55.52,16.63,9.6,1.56,13.9,1.72,36.3,1.72s26.71-.16,36.31-1.72c21.63-3.44,39.12-8.59,55.44-16.55,22.95-11.09,39.27-27.88,43.64-45,1.64-6.24,1.64-17.8,0-24.05-4.06-15.69-17.64-31-37.4-41.85-2.57-1.48-4.84-2.73-5-2.81s2.73-4,6.32-8.66c12.49-15.93,20.61-28.81,28-44.35,18.5-38.81,21.71-78.78,9.21-116.34-16.32-49-57-84.87-108.53-95.72C273.34,56.33,245.54,55.71,234.14,57.5Zm37.64,23.74c38,4.6,73.23,29.75,91.11,65A119.22,119.22,0,0,1,373,226.46c-9.53,44.59-44.74,92.14-97.84,132-5.54,4.13-12.18,8.9-14.6,10.54l-4.53,3-4.45-3c-20-13.12-46.92-36.31-62.77-54-17.18-19.12-28.34-35.21-37.4-53.79-19.52-39.9-20.3-79.41-2.26-114.93C172.3,100.52,220.4,75,271.78,81.24ZM206,365.13A388,388,0,0,0,250,397l6.17,3.67,9.68-6.09c17.88-11.17,39.59-28.11,57-44.35l8.59-8,7,3.67c13.9,7.18,23.51,15.69,27.8,24.67,12.1,25.69-26.62,53.25-84.4,60.2-12.81,1.48-38.88,1.48-51.69,0-41.54-5-75.11-21.16-84.32-40.68-7.27-15.15,3-31.39,27.71-44.19l7-3.67,8.59,8C193.93,354.67,201.51,361.38,206,365.13Z" transform="translate(-111.95 -56.45)"/><path class="cls-1" d="M208.38,144.4A42,42,0,0,0,190,155.73,40.15,40.15,0,0,0,178.24,177a45.52,45.52,0,0,0,4,30c2.81,5.47,9.68,12.81,41.3,44.43L256,283.85l32.48-32.4c31.63-31.62,38.5-39,41.31-44.43a45.52,45.52,0,0,0,4-30,40.15,40.15,0,0,0-11.71-21.31c-9-9-18.12-12.81-30.92-12.81-12.26,0-21.71,3.75-30.22,12l-5,4.76-4.45-4.37c-5.63-5.55-9.61-8-16.87-10.39S215.17,142.22,208.38,144.4Zm20.14,23.9c1.72.78,7.73,6.09,15.15,13.5L256,194l12.34-12.18c7.42-7.41,13.43-12.72,15.15-13.5,3.67-1.49,11.32-1.49,14.91,0a20.91,20.91,0,0,1,9.76,8.9c2.81,4.76,3,12.8.39,17.64-.94,1.72-13.12,14.52-27.09,28.5L256,248.72l-25.45-25.38c-14-14-26.16-26.78-27.09-28.5-2.58-4.76-2.42-12.88.39-17.57,2.5-4.29,4.84-6.55,8.9-8.58C216.5,166.81,224.38,166.66,228.52,168.3Z" transform="translate(-111.95 -56.45)"/></svg>