<svg xmlns="http://www.w3.org/2000/svg" width="136" height="151.108" viewBox="0 0 136 151.108">
  <g id="wallet" transform="translate(0 -0.012)">
    <g id="Layer_1" data-name="Layer 1">
      <g id="outline">
        <path id="Path_218" data-name="Path 218" d="M125.93,63h-5V50.38A22.69,22.69,0,0,0,98.22,27.72h-2a40.29,40.29,0,0,0-76.55,0H12.59A12.6,12.6,0,0,0,0,40.31v83.11a27.73,27.73,0,0,0,27.7,27.7H93.19a27.73,27.73,0,0,0,27.7-27.7V113.35A15.13,15.13,0,0,0,136,98.24V73.05A10.08,10.08,0,0,0,125.93,63Zm0,5a5.04,5.04,0,0,1,0,10.08h-5V68ZM98.22,32.75a17.65,17.65,0,0,1,17.63,17.63v9.28a27.75,27.75,0,0,0-18.4-11.47,40.5,40.5,0,0,0,.06-15.44ZM57.93,5.05A35.3,35.3,0,0,1,93.19,40.37a35.75,35.75,0,0,1-.82,7.5H87.19a30.22,30.22,0,1,0-58.53,0H23.48a35.28,35.28,0,0,1,26.92-42,34.6,34.6,0,0,1,7.53-.82Zm12.5,42.82a8.79,8.79,0,0,0-2.57-7.56,8.8,8.8,0,0,0-3.39-14.66v-2a2.52,2.52,0,1,0-5,0V25.2h-3V23.69a2.52,2.52,0,1,0-5,0V25.2H47.85a2.52,2.52,0,0,0,0,5h2.52V47.87H33.9a25.18,25.18,0,1,1,48.05,0ZM61.7,30.24a3.78,3.78,0,1,1,0,7.55H55.41V30.24ZM55.41,42.83H61.7a3.77,3.77,0,0,1,3.78,3.77,3.69,3.69,0,0,1-.22,1.27H55.41ZM12.59,32.75h5.75a40.46,40.46,0,0,0,0,15.12H12A7.39,7.39,0,0,1,5.11,41.1v-.78a7.56,7.56,0,0,1,7.48-7.57ZM5,50.48a12,12,0,0,0,6.68,2.41H93.19a22.69,22.69,0,0,1,22.66,22.67v2.52H98.22a17.63,17.63,0,1,0,0,35.26h17.63v10.07a22.69,22.69,0,0,1-22.66,22.67H27.7A22.69,22.69,0,0,1,5,123.42m93.18-15.11a12.6,12.6,0,0,1,0-25.19h27.71a9.88,9.88,0,0,0,5-1.35V98.24a10.08,10.08,0,0,1-10.07,10.07Z" fill="#a0accc"/>
        <path id="Path_219" data-name="Path 219" d="M89.41,95.72a8.8,8.8,0,1,0,2.574-6.239A8.82,8.82,0,0,0,89.41,95.72Zm12.59,0a3.77,3.77,0,1,1-1.1-2.676A3.78,3.78,0,0,1,102,95.72Z" fill="#a0accc"/>
      </g>
    </g>
  </g>
</svg>
