<svg id="Layer_4" data-name="Layer 4" xmlns="http://www.w3.org/2000/svg" viewBox="0 0 388.58 389.08"><defs><style>.cls-1{fill:#a0accc;}</style></defs><path class="cls-1" d="M199.35,62.66A34.73,34.73,0,0,0,179.12,80.6C176.46,86.31,175.4,92,175.4,101v6.54l-21.07.38c-18.78.31-21.82.53-27.22,2-21,5.85-38,17.56-50.11,34.52-4.87,6.85-10.65,19.24-13.16,28.29l-2.13,7.6V331.62l1.67,6.31a96.28,96.28,0,0,0,10.95,25.7c5.33,8.75,18.48,22.13,26.77,27.22L107,394.5v23.35c0,21.29.15,23.57,1.52,26.46a11.86,11.86,0,0,0,4,4.79c2.51,1.52,3.2,1.52,144.1,1.37l141.52-.23,2.05-1.9c3.73-3.5,4.18-5.24,4.18-16.19,0-5.63.23-16.35.53-24l.46-13.84,5.78-3.57c8.14-5,21.29-18.4,26.62-27.15a96.28,96.28,0,0,0,10.95-25.7l1.67-6.31V180.29l-2.13-7.6A88.75,88.75,0,0,0,386,110.26c-6.84-2-8.36-2.05-28.29-2.36l-21.14-.38V101c0-9.35-1.06-15-4.1-21.14A35.36,35.36,0,0,0,316.3,64.1l-5.17-2.43-54-.15C207.41,61.36,202.85,61.44,199.35,62.66ZM307,86c4.26,2.51,6.08,7,6.08,15v6.69H199V101c.07-10,2.66-14.52,9.35-16.12,1.29-.38,23.5-.61,49.2-.53C303,84.48,304.36,84.56,307,86Zm61.82,45.25A64.2,64.2,0,0,1,408.39,150c11.33,11.33,17.34,24.56,18.78,41.37.46,5.55.69,33.08.46,71.63-.23,61.14-.31,62.74-1.9,68.82C419.57,355.34,402.31,373,379,379.3l-6.31,1.75H256c-131.25,0-120.22.45-133.68-5.78-18.33-8.52-30.8-23.58-36-43.5-1.59-6.08-1.67-7.68-1.9-68.82-.23-38.55,0-66.08.46-71.63,1.44-16.81,7.45-30,18.78-41.37,10.42-10.42,24.64-17.34,38.63-18.63C151.21,130.41,359.8,130.41,368.77,131.25ZM251.06,404.77c81.74.23,117,.08,122.27-.53a50.52,50.52,0,0,1,7.84-.53c.22.22.15,5.7-.16,12.24l-.53,11.86H130.53V403.33l2.89.53C134.94,404.16,187.94,404.62,251.06,404.77Z" transform="translate(-61.71 -61.46)"/><path class="cls-1" d="M249.61,154.74c-3.5,2.36-5,5.25-5,10s1.52,7.61,5,10c3,2,9.81,2,12.78,0,3.5-2.36,5-5.25,5-10s-1.52-7.6-5-10a14.9,14.9,0,0,0-12.78,0Z" transform="translate(-61.71 -61.46)"/><path class="cls-1" d="M319.12,193.68c-1.45.91-10.19,7.37-19.4,14.29s-23,17.42-30.56,23.2l-13.84,10.41-20.16-13.46c-17.94-11.93-20.6-13.46-23.95-13.84a11.92,11.92,0,0,0-11.18,5.4c-1.9,3.35-1.9,9.66.15,12.47s49,34.15,52.85,35.29a8.31,8.31,0,0,0,6.16-.23c2.06-.68,16.2-10.87,39.09-28.21,38-28.82,38.32-29.05,38.32-35.29C336.6,195,326.57,189.19,319.12,193.68Z" transform="translate(-61.71 -61.46)"/><path class="cls-1" d="M114.94,245.61a11.73,11.73,0,0,0-3,19.39c9.73,8.52,23.42-1.82,18.33-13.91C128.1,245.92,120.34,243.1,114.94,245.61Z" transform="translate(-61.71 -61.46)"/><path class="cls-1" d="M387.55,245.84c-8.21,4.26-8.21,16.43,0,20.91,3.35,1.83,9.13,1.52,12-.68,3.72-2.81,5-5.32,5-9.73s-1.3-6.92-5-9.74C396.75,244.47,390.9,244.09,387.55,245.84Z" transform="translate(-61.71 -61.46)"/><path class="cls-1" d="M249.61,337.24c-3.5,2.36-5,5.25-5,10s1.52,7.6,5,10a11.53,11.53,0,0,0,6.39,1.44c7.22,0,11.41-4.18,11.41-11.4S263.22,335.8,256,335.8A11.61,11.61,0,0,0,249.61,337.24Z" transform="translate(-61.71 -61.46)"/></svg>