<svg xmlns="http://www.w3.org/2000/svg" viewBox="0 0 119.06 119.06"><defs><style>.cls-1{fill:#a0accc;}</style></defs><g id="Layer_2" data-name="Layer 2"><g id="Layer_1-2" data-name="Layer 1"><path class="cls-1" d="M17.57,99.75A17.59,17.59,0,0,1,0,82.18V66A17.65,17.65,0,0,1,8.79,50.76l.74-.43v-.86a50,50,0,0,1,96.9-16.82,3.28,3.28,0,0,1-1.94,4.2,3.32,3.32,0,0,1-1.13.2,3.26,3.26,0,0,1-3.06-2.13A43.47,43.47,0,0,0,16.19,46.79l-.12,1.61h11a3.27,3.27,0,0,1,3.27,3.26V96.49a3.27,3.27,0,0,1-3.27,3.26Zm0-44.82a11,11,0,0,0-11,11V82.18a11,11,0,0,0,11,11h6.27V54.93Z"/><path class="cls-1" d="M59.53,119.06a8,8,0,1,1,7-11.92L68.72,111l-2.16,3.89A8,8,0,0,1,59.53,119.06Zm9.85-4.76v-6.54h13a6.27,6.27,0,0,0,6.27-6.27V51.66A3.26,3.26,0,0,1,92,48.4h9.53A17.59,17.59,0,0,1,119.06,66V82.18a17.59,17.59,0,0,1-17.57,17.57H95.22v1.74a12.82,12.82,0,0,1-12.8,12.81ZM95.22,93.22h6.27a11,11,0,0,0,11-11V66a11,11,0,0,0-11-11H95.22Z"/></g></g></svg>