<svg id="Layer_1" data-name="Layer 1" xmlns="http://www.w3.org/2000/svg" viewBox="0 0 227.94 297.72"><defs><style>.cls-1{fill:#a0accc;}</style></defs><path class="cls-1" d="M204.47,108.25a35.57,35.57,0,0,0-26.81,29.89l-.35,3.73-7.91.23c-6.75.23-8.44.47-11.58,1.74a24.74,24.74,0,0,0-14,14l-1.51,3.66-.17,29.78c-.12,19.78.06,30.54.46,32.11a9,9,0,0,0,7,6.17c2.33.41,3.2.06,14.89-5.76l12.39-6.17v74.63c0,41.77.24,76.85.58,79.7a34.18,34.18,0,0,0,5.36,16.17,38.15,38.15,0,0,0,19.66,15.24c3.78,1.28,3.95,1.28,51.59,1.45,53.58.18,52.59.23,61-4a36.33,36.33,0,0,0,17.69-20.07c2-5.94,2.32-12.22,2.32-44.62V305.44l11.69,5.82c9.78,4.88,12.1,5.81,14.37,5.81a7.86,7.86,0,0,0,7.68-4.83c1.05-2.32,1.16-4.07,1.16-31.06,0-18.84-.23-29.66-.64-31.7A25,25,0,0,0,362.75,237c-5.41-5.47-10.47-7.21-20.76-7.21h-6.87V187.47c0-23.27-.29-44.61-.58-47.41a34.75,34.75,0,0,0-5.35-16.23,36.45,36.45,0,0,0-21.76-15.58c-4.3-1.11-6.57-1.17-51.65-1.11C211.63,107.14,208.31,107.2,204.47,108.25Zm102,18c3.84,1.74,8.38,6.57,9.66,10.3.81,2.44.93,8,.93,48v45.25l-25.71.18-25.77.17-3.9,1.86a24.61,24.61,0,0,0-13.61,16.11c-1.1,4.13-1.1,29.09,0,33.22A24.11,24.11,0,0,0,264,298.4c3.37,1.16,4.83,1.22,28.33,1.22h24.72V335.1H194.93V212.37H217.8c12.5,0,24.31-.23,26.23-.58a24.54,24.54,0,0,0,19.89-18c.76-2.9.88-6.28.7-18.2-.17-13.38-.29-15-1.45-17.74a26,26,0,0,0-15-14.43c-2.62-1-5.24-1.11-28-1.28l-25.19-.17v-1.34c0-4.19,4.72-11.35,9-13.56,4.66-2.44,4.48-2.44,53-2.32l46.54.11Zm-62.64,34.55c3.25,2.21,3.43,3,3.43,16.46,0,11.81-.06,12.34-1.34,14.26a8.13,8.13,0,0,1-3.32,2.67c-1.45.52-10.06.7-30.71.7l-28.62.06-11.63,5.81c-6.4,3.2-11.75,5.82-11.93,5.82s-.29-9.25-.29-20.53c0-23,.12-23.56,4.07-25.54,1.87-1,5-1,40.2-1h38.16Zm106.27,88.48,2.15,2,.18,21.59.17,21.58-12-6-12-5.93-29.79-.29c-32.05-.29-31.52-.23-33.21-3.49-1.28-2.44-1.28-25.48,0-27.92,1.86-3.55.35-3.43,43.22-3.49h39.09Zm-33,113.37c0,7.74-.23,10.7-.93,12.85-1.28,3.73-5.82,8.55-9.66,10.3l-3.08,1.4H208.6l-3.08-1.4c-3.84-1.75-8.37-6.57-9.65-10.3-.7-2.15-.94-5.11-.94-12.85V352.56H317.09Z" transform="translate(-142.08 -107.13)"/></svg>