<svg xmlns="http://www.w3.org/2000/svg" xmlns:xlink="http://www.w3.org/1999/xlink" width="223" height="66.074" viewBox="0 0 223 66.074">
  <defs>
    <linearGradient id="linear-gradient" x1="-1.559" y1="3.462" x2="-1.559" y2="3.387" gradientUnits="objectBoundingBox">
      <stop offset="0" stop-color="#1a1a1a" stop-opacity="0.102"/>
      <stop offset="0.123" stop-color="#212121" stop-opacity="0.153"/>
      <stop offset="0.308" stop-color="#353535" stop-opacity="0.227"/>
      <stop offset="0.532" stop-color="#575757" stop-opacity="0.318"/>
      <stop offset="0.783" stop-color="#858585" stop-opacity="0.42"/>
      <stop offset="1" stop-color="#b3b3b3" stop-opacity="0.51"/>
    </linearGradient>
  </defs>
  <g id="admin-panel" transform="translate(-661 -712)">
    <g id="Group_3" data-name="Group 3" transform="translate(62 -265)">
      <path id="Path_26" data-name="Path 26" d="M214.741,66.074H8.259A8.179,8.179,0,0,1,0,57.815V8.259A8.179,8.179,0,0,1,8.259,0H214.741A8.179,8.179,0,0,1,223,8.259V57.815A8.179,8.179,0,0,1,214.741,66.074Z" transform="translate(599 977)"/>
      <path id="Path_27" data-name="Path 27" d="M214.741,1.321a6.98,6.98,0,0,1,6.938,6.938V57.815a6.98,6.98,0,0,1-6.938,6.938H8.259a6.98,6.98,0,0,1-6.938-6.938V8.259A6.98,6.98,0,0,1,8.259,1.321Zm0-1.321H8.259A8.283,8.283,0,0,0,0,8.259V57.815a8.179,8.179,0,0,0,8.259,8.259H214.741A8.179,8.179,0,0,0,223,57.815V8.259A8.283,8.283,0,0,0,214.741,0Z" transform="translate(599 977)" fill="#a6a6a6"/>
    </g>
    <g id="user_3_" data-name="user (3)" transform="translate(684.066 726.113)">
      <path id="Path_24" data-name="Path 24" d="M112.464,101a11.464,11.464,0,1,0,11.464,11.464A11.477,11.477,0,0,0,112.464,101Zm0,20.709a9.189,9.189,0,0,1-4.8-1.347,4.807,4.807,0,0,1,9.6,0A9.189,9.189,0,0,1,112.464,121.709Zm-2.589-10.724a2.589,2.589,0,1,1,2.589,2.589A2.592,2.592,0,0,1,109.875,110.985Zm9.366,7.761a7.057,7.057,0,0,0-3.425-4.319,4.807,4.807,0,1,0-6.7,0,7.057,7.057,0,0,0-3.425,4.319,9.245,9.245,0,1,1,13.554,0Z" transform="translate(-93.53 -93.53)" fill="#fff"/>
      <path id="Path_25" data-name="Path 25" d="M36.759,14.866H35.074A16.434,16.434,0,0,0,33.223,10.4l1.192-1.192a1.109,1.109,0,0,0,0-1.569L30.231,3.454a1.109,1.109,0,0,0-1.569,0L27.47,4.646A16.432,16.432,0,0,0,23,2.795V1.109A1.109,1.109,0,0,0,21.893,0H15.976a1.109,1.109,0,0,0-1.109,1.109V2.795A16.43,16.43,0,0,0,10.4,4.646L9.207,3.454a1.109,1.109,0,0,0-1.569,0L3.454,7.638a1.109,1.109,0,0,0,0,1.569L4.646,10.4a16.43,16.43,0,0,0-1.851,4.468H1.109A1.109,1.109,0,0,0,0,15.976v5.917A1.109,1.109,0,0,0,1.109,23H2.795A16.432,16.432,0,0,0,4.646,27.47L3.454,28.662a1.109,1.109,0,0,0,0,1.569l4.184,4.184a1.109,1.109,0,0,0,1.569,0L10.4,33.223a16.434,16.434,0,0,0,4.468,1.851v1.685a1.109,1.109,0,0,0,1.109,1.109h5.917A1.109,1.109,0,0,0,23,36.759V35.073a16.434,16.434,0,0,0,4.468-1.851l1.192,1.192a1.109,1.109,0,0,0,1.569,0l4.184-4.184a1.109,1.109,0,0,0,0-1.569L33.223,27.47A16.431,16.431,0,0,0,35.073,23h1.685a1.109,1.109,0,0,0,1.109-1.109V15.976A1.109,1.109,0,0,0,36.759,14.866Zm-1.109,5.917H34.183a1.109,1.109,0,0,0-1.089.9A14.271,14.271,0,0,1,30.89,27a1.109,1.109,0,0,0,.134,1.406l1.037,1.037-2.615,2.615-1.037-1.037A1.109,1.109,0,0,0,27,30.89a14.27,14.27,0,0,1-5.321,2.2,1.109,1.109,0,0,0-.9,1.089v1.466h-3.7V34.183a1.11,1.11,0,0,0-.9-1.089,14.27,14.27,0,0,1-5.321-2.2,1.109,1.109,0,0,0-1.406.134L8.422,32.061,5.807,29.446l1.037-1.037A1.109,1.109,0,0,0,6.978,27a14.269,14.269,0,0,1-2.2-5.321,1.109,1.109,0,0,0-1.089-.9H2.219v-3.7H3.685a1.109,1.109,0,0,0,1.089-.9,14.27,14.27,0,0,1,2.2-5.321,1.109,1.109,0,0,0-.134-1.406L5.807,8.422,8.422,5.807,9.459,6.844a1.109,1.109,0,0,0,1.406.134,14.268,14.268,0,0,1,5.321-2.2,1.11,1.11,0,0,0,.9-1.089V2.219h3.7V3.685a1.11,1.11,0,0,0,.9,1.089A14.268,14.268,0,0,1,27,6.978a1.109,1.109,0,0,0,1.406-.134l1.037-1.037,2.615,2.615L31.024,9.459a1.109,1.109,0,0,0-.134,1.406,14.271,14.271,0,0,1,2.2,5.321,1.109,1.109,0,0,0,1.089.9h1.466Z" fill="#fff"/>
    </g>
    <path id="Path_28" data-name="Path 28" d="M866.96,0H755.916L799.41,66.074h67.55a7.82,7.82,0,0,0,7.814-7.805V7.809A7.821,7.821,0,0,0,866.96,0Z" transform="translate(9.227 712)" fill="url(#linear-gradient)"/>
    <text id="Available_" data-name="Available " transform="translate(732 737)" fill="#fff" font-size="11" font-family="Montserrat-Regular, Montserrat"><tspan x="0" y="0">Available </tspan></text>
    <text id="Admin_Panel" data-name="Admin Panel" transform="translate(732 759)" fill="#fff" font-size="20" font-family="Montserrat-SemiBold, Montserrat" font-weight="600"><tspan x="0" y="0">Admin Panel</tspan></text>
  </g>
</svg>
