<svg id="app-store" xmlns="http://www.w3.org/2000/svg" xmlns:xlink="http://www.w3.org/1999/xlink" width="222.941" height="66.074" viewBox="0 0 222.941 66.074">
  <defs>
    <linearGradient id="linear-gradient" x1="-1.559" y1="3.462" x2="-1.559" y2="3.387" gradientUnits="objectBoundingBox">
      <stop offset="0" stop-color="#1a1a1a" stop-opacity="0.102"/>
      <stop offset="0.123" stop-color="#212121" stop-opacity="0.153"/>
      <stop offset="0.308" stop-color="#353535" stop-opacity="0.227"/>
      <stop offset="0.532" stop-color="#575757" stop-opacity="0.318"/>
      <stop offset="0.783" stop-color="#858585" stop-opacity="0.42"/>
      <stop offset="1" stop-color="#b3b3b3" stop-opacity="0.51"/>
    </linearGradient>
  </defs>
  <path id="Path_17" data-name="Path 17" d="M230.673,67.483a6.328,6.328,0,0,1-6.335,6.328H17.024a6.336,6.336,0,0,1-6.343-6.328V17.017a6.344,6.344,0,0,1,6.343-6.337H224.336a6.335,6.335,0,0,1,6.335,6.337l0,50.466Z" transform="translate(-9.21 -9.209)" fill="#fff"/>
  <path id="Path_18" data-name="Path 18" d="M215.128,66.074H7.814A7.816,7.816,0,0,1,0,58.274V7.809A7.821,7.821,0,0,1,7.814,0H215.126a7.824,7.824,0,0,1,7.814,7.809V58.274a7.814,7.814,0,0,1-7.812,7.8Z" fill="#a6a6a6"/>
  <path id="Path_19" data-name="Path 19" d="M230.673,67.483a6.328,6.328,0,0,1-6.335,6.328H17.024a6.336,6.336,0,0,1-6.343-6.328V17.017a6.344,6.344,0,0,1,6.343-6.337H224.336a6.335,6.335,0,0,1,6.335,6.337l0,50.466Z" transform="translate(-9.21 -9.209)"/>
  <path id="Path_20" data-name="Path 20" d="M182.149,97.021a9.578,9.578,0,0,1,4.562-8.037,9.81,9.81,0,0,0-7.726-4.177c-3.25-.342-6.4,1.945-8.058,1.945-1.689,0-4.238-1.912-6.986-1.856a10.287,10.287,0,0,0-8.658,5.281c-3.744,6.482-.952,16.008,2.636,21.247,1.794,2.568,3.891,5.431,6.636,5.33,2.685-.109,3.688-1.71,6.928-1.71,3.21,0,4.152,1.71,6.951,1.646,2.882-.045,4.7-2.578,6.428-5.167a21.185,21.185,0,0,0,2.939-5.986A9.266,9.266,0,0,1,182.149,97.021ZM176.861,81.36a9.428,9.428,0,0,0,2.158-6.756,9.6,9.6,0,0,0-6.21,3.212,8.972,8.972,0,0,0-2.214,6.507A7.932,7.932,0,0,0,176.861,81.36Z" transform="translate(-132.368 -64.332)" fill="#fff"/>
  <path id="Path_21" data-name="Path 21" d="M866.96,0H755.916L799.41,66.074h67.55a7.82,7.82,0,0,0,7.814-7.805V7.809A7.821,7.821,0,0,0,866.96,0Z" transform="translate(-651.832)" fill="url(#linear-gradient)"/>
  <g id="Group_1" data-name="Group 1" transform="translate(70.107 29.74)">
    <path id="Path_22" data-name="Path 22" d="M527.724,238.3h-3.752l-2.055-6.459h-7.145l-1.958,6.459H509.16l7.08-21.989h4.372Zm-6.427-9.169-1.859-5.742q-.295-.88-1.109-4.142h-.066q-.327,1.4-1.044,4.142l-1.827,5.742Zm24.6,1.046a8.979,8.979,0,0,1-2.2,6.393,6.443,6.443,0,0,1-4.888,2.089,4.893,4.893,0,0,1-4.527-2.249v8.319h-3.523V227.66q0-2.541-.13-5.211h3.1l.2,2.513h.066a6.267,6.267,0,0,1,10.031-.623A8.768,8.768,0,0,1,545.9,230.181Zm-3.589.129a6.536,6.536,0,0,0-1.044-3.818,3.609,3.609,0,0,0-3.067-1.565,3.663,3.663,0,0,0-2.364.864,4.007,4.007,0,0,0-1.386,2.269,4.6,4.6,0,0,0-.164,1.072v2.645a4.242,4.242,0,0,0,1.061,2.921,3.521,3.521,0,0,0,2.756,1.191,3.61,3.61,0,0,0,3.1-1.533,6.75,6.75,0,0,0,1.11-4.046Zm21.825-.129a8.979,8.979,0,0,1-2.2,6.393,6.447,6.447,0,0,1-4.889,2.089,4.893,4.893,0,0,1-4.527-2.249v8.319H549V227.66q0-2.541-.13-5.211h3.1l.2,2.513h.066a6.268,6.268,0,0,1,10.033-.623,8.776,8.776,0,0,1,1.874,5.843Zm-3.59.129a6.536,6.536,0,0,0-1.046-3.818,3.6,3.6,0,0,0-3.063-1.565,3.678,3.678,0,0,0-2.368.864,4.007,4.007,0,0,0-1.385,2.269,4.706,4.706,0,0,0-.165,1.072v2.645a4.257,4.257,0,0,0,1.059,2.921,3.529,3.529,0,0,0,2.759,1.191,3.606,3.606,0,0,0,3.1-1.533,6.748,6.748,0,0,0,1.11-4.046Zm23.98,1.826a5.874,5.874,0,0,1-1.955,4.569,8.665,8.665,0,0,1-5.99,1.925,10.455,10.455,0,0,1-5.694-1.37l.815-2.936a9.8,9.8,0,0,0,5.089,1.371,4.8,4.8,0,0,0,3.1-.9A2.931,2.931,0,0,0,581,232.4a3.07,3.07,0,0,0-.915-2.252,8.486,8.486,0,0,0-3.034-1.7q-5.775-2.154-5.777-6.3a5.561,5.561,0,0,1,2.039-4.436,8.062,8.062,0,0,1,5.4-1.73,10.67,10.67,0,0,1,4.992,1.044l-.884,2.872a8.728,8.728,0,0,0-4.225-1.011,4.3,4.3,0,0,0-2.915.914,2.615,2.615,0,0,0-.884,1.993,2.693,2.693,0,0,0,1.013,2.153,11.413,11.413,0,0,0,3.2,1.7,10.835,10.835,0,0,1,4.175,2.673A5.571,5.571,0,0,1,584.522,232.136Zm11.678-7.044h-3.883v7.7q0,2.937,2.056,2.934a6.2,6.2,0,0,0,1.565-.164l.1,2.675a7.977,7.977,0,0,1-2.74.39,4.222,4.222,0,0,1-3.263-1.274q-1.172-1.274-1.175-4.275v-7.992h-2.313v-2.644h2.313v-2.9l3.46-1.044v3.947H596.2Zm17.484,5.154a8.7,8.7,0,0,1-2.089,6,7.445,7.445,0,0,1-5.806,2.414,7.1,7.1,0,0,1-5.563-2.313,8.434,8.434,0,0,1-2.072-5.839,8.627,8.627,0,0,1,2.136-6.034,7.406,7.406,0,0,1,5.76-2.349,7.245,7.245,0,0,1,5.61,2.316,8.323,8.323,0,0,1,2.024,5.8Zm-3.652.081a7.1,7.1,0,0,0-.943-3.741,3.487,3.487,0,0,0-3.166-1.888,3.537,3.537,0,0,0-3.23,1.888,7.217,7.217,0,0,0-.945,3.807,7.079,7.079,0,0,0,.945,3.743,3.613,3.613,0,0,0,6.366-.031A7.127,7.127,0,0,0,610.032,230.327Zm15.106-4.78a6.119,6.119,0,0,0-1.11-.1,3.324,3.324,0,0,0-2.872,1.4,5.29,5.29,0,0,0-.879,3.131V238.3h-3.523V227.442q0-2.739-.1-4.992h3.069l.129,3.034h.1a5.44,5.44,0,0,1,1.761-2.513,4.26,4.26,0,0,1,2.546-.849,5.641,5.641,0,0,1,.881.065Zm15.756,4.08a8.261,8.261,0,0,1-.129,1.6H630.2a4.6,4.6,0,0,0,1.533,3.592,5.242,5.242,0,0,0,3.457,1.107,11.689,11.689,0,0,0,4.276-.749l.552,2.444a13.22,13.22,0,0,1-5.315.98,7.706,7.706,0,0,1-5.793-2.168,8.015,8.015,0,0,1-2.1-5.823,9.082,9.082,0,0,1,1.96-5.968,6.751,6.751,0,0,1,5.544-2.543,5.908,5.908,0,0,1,5.19,2.543,8.558,8.558,0,0,1,1.4,4.987Zm-3.359-.914a4.77,4.77,0,0,0-.684-2.708,3.076,3.076,0,0,0-2.806-1.471,3.34,3.34,0,0,0-2.8,1.436,5.261,5.261,0,0,0-1.042,2.74Z" transform="translate(-509.16 -215.99)" fill="#fff"/>
  </g>
  <g id="Group_2" data-name="Group 2" transform="translate(71.419 10.828)">
    <path id="Path_23" data-name="Path 23" d="M527.814,90h-1.846l-1.01-3.174h-3.511L520.484,90h-1.8l3.48-10.808h2.148ZM524.655,85.5l-.914-2.822c-.1-.289-.273-.962-.545-2.036h-.033c-.112.464-.273,1.138-.514,2.036l-.9,2.822Zm11.86-3.286L533.564,90H531.88l-2.855-7.792h1.86l1.332,4.121c.225.689.416,1.347.56,1.971h.048c.129-.56.321-1.218.56-1.971l1.315-4.121ZM542.8,90l-.129-.9h-.048a2.657,2.657,0,0,1-2.277,1.074,2.268,2.268,0,0,1-2.389-2.293c0-1.923,1.667-2.918,4.554-2.918v-.144c0-1.026-.545-1.54-1.619-1.54a3.638,3.638,0,0,0-2.036.578l-.352-1.138a4.989,4.989,0,0,1,2.678-.674c2.036,0,3.063,1.074,3.063,3.224v2.87a11.569,11.569,0,0,0,.112,1.86Zm-.241-3.881c-1.925,0-2.887.466-2.887,1.571a1.1,1.1,0,0,0,1.186,1.218,1.657,1.657,0,0,0,1.7-1.586Zm5.544-5.195a1.035,1.035,0,1,1,1.091-1.043A1.017,1.017,0,0,1,548.1,80.928ZM549,90h-1.732V82.212H549Zm4.808,0h-1.732V78.636h1.732Zm7.359,0-.129-.9h-.048a2.657,2.657,0,0,1-2.277,1.074,2.268,2.268,0,0,1-2.389-2.293c0-1.923,1.667-2.918,4.554-2.918v-.144c0-1.026-.545-1.54-1.619-1.54a3.639,3.639,0,0,0-2.036.578l-.353-1.14a4.989,4.989,0,0,1,2.678-.674c2.036,0,3.063,1.074,3.063,3.224v2.87A12.007,12.007,0,0,0,562.72,90h-1.555Zm-.241-3.881c-1.925,0-2.887.466-2.887,1.571a1.1,1.1,0,0,0,1.186,1.218,1.657,1.657,0,0,0,1.7-1.586Zm8.7,4.058a2.645,2.645,0,0,1-2.451-1.38h-.035l-.1,1.2h-1.476c.048-.625.064-1.332.064-2.1V78.636h1.733v4.716h.033a2.673,2.673,0,0,1,2.485-1.3c1.877,0,3.192,1.6,3.192,3.944,0,2.419-1.461,4.184-3.448,4.184Zm-.352-6.768a1.992,1.992,0,0,0-1.908,2.069v1.363a1.909,1.909,0,0,0,1.879,1.956c1.3,0,2.069-1.057,2.069-2.741,0-1.571-.8-2.647-2.039-2.647ZM577.365,90h-1.73V78.636h1.73Zm9.426-3.48h-5.2a2.236,2.236,0,0,0,2.454,2.308,5.846,5.846,0,0,0,2.1-.368l.269,1.2a6.5,6.5,0,0,1-2.612.481,3.618,3.618,0,0,1-3.881-3.928c0-2.389,1.477-4.185,3.686-4.185,1.988,0,3.24,1.476,3.24,3.7A3.272,3.272,0,0,1,586.791,86.524ZM585.2,85.29c0-1.2-.61-2.052-1.717-2.052a2.056,2.056,0,0,0-1.894,2.052Zm12.084,4.891a3.709,3.709,0,0,1-3.752-4.008,3.8,3.8,0,0,1,3.883-4.121,3.68,3.68,0,0,1,3.752,3.994A3.819,3.819,0,0,1,597.287,90.181Zm.066-6.864c-1.251,0-2.052,1.17-2.052,2.806,0,1.6.818,2.774,2.036,2.774s2.034-1.251,2.034-2.807C599.372,84.5,598.571,83.317,597.353,83.317ZM610.478,90h-1.73V85.529c0-1.378-.529-2.069-1.571-2.069a1.8,1.8,0,0,0-1.733,1.908V90h-1.73V84.439c0-.689-.018-1.428-.064-2.229h1.523l.081,1.2h.048a2.8,2.8,0,0,1,2.469-1.363c1.634,0,2.708,1.251,2.708,3.286V90Zm11.331-6.494H619.9v3.784q0,1.445,1.008,1.444a3.427,3.427,0,0,0,.77-.081l.048,1.315a3.856,3.856,0,0,1-1.345.193c-1.365,0-2.179-.753-2.179-2.726V83.51h-1.137v-1.3h1.137V80.784l1.7-.514v1.94h1.905ZM630.979,90h-1.733V85.562c0-1.395-.529-2.1-1.571-2.1a1.7,1.7,0,0,0-1.73,1.844V90h-1.733V78.636h1.733v4.681h.033a2.622,2.622,0,0,1,2.341-1.267c1.651,0,2.66,1.282,2.66,3.319Zm8.848-3.48h-5.2a2.234,2.234,0,0,0,2.452,2.308,5.839,5.839,0,0,0,2.1-.368l.271,1.2a6.5,6.5,0,0,1-2.614.481,3.618,3.618,0,0,1-3.881-3.928c0-2.389,1.477-4.185,3.686-4.185,1.988,0,3.24,1.476,3.24,3.7A3.367,3.367,0,0,1,639.827,86.524Zm-1.588-1.234c0-1.2-.608-2.052-1.715-2.052a2.054,2.054,0,0,0-1.894,2.052Z" transform="translate(-518.688 -78.636)" fill="#fff"/>
  </g>
</svg>
