<svg xmlns="http://www.w3.org/2000/svg" xmlns:xlink="http://www.w3.org/1999/xlink" width="223" height="66.074" viewBox="0 0 223 66.074">
  <defs>
    <linearGradient id="linear-gradient" x1="-1.559" y1="3.462" x2="-1.559" y2="3.387" gradientUnits="objectBoundingBox">
      <stop offset="0" stop-color="#1a1a1a" stop-opacity="0.102"/>
      <stop offset="0.123" stop-color="#212121" stop-opacity="0.153"/>
      <stop offset="0.308" stop-color="#353535" stop-opacity="0.227"/>
      <stop offset="0.532" stop-color="#575757" stop-opacity="0.318"/>
      <stop offset="0.783" stop-color="#858585" stop-opacity="0.42"/>
      <stop offset="1" stop-color="#b3b3b3" stop-opacity="0.51"/>
    </linearGradient>
    <linearGradient id="linear-gradient-2" x1="0.908" y1="1.032" x2="-0.383" y2="0.36" gradientUnits="objectBoundingBox">
      <stop offset="0" stop-color="#00a0ff"/>
      <stop offset="0.007" stop-color="#00a1ff"/>
      <stop offset="0.26" stop-color="#00beff"/>
      <stop offset="0.512" stop-color="#00d2ff"/>
      <stop offset="0.76" stop-color="#00dfff"/>
      <stop offset="1" stop-color="#00e3ff"/>
    </linearGradient>
    <linearGradient id="linear-gradient-3" x1="1.077" y1="0.729" x2="-1.307" y2="0.729" gradientUnits="objectBoundingBox">
      <stop offset="0" stop-color="#ffe000"/>
      <stop offset="0.409" stop-color="#ffbd00"/>
      <stop offset="0.775" stop-color="orange"/>
      <stop offset="1" stop-color="#ff9c00"/>
    </linearGradient>
    <linearGradient id="linear-gradient-4" x1="0.864" y1="-0.023" x2="-0.499" y2="-1.789" gradientUnits="objectBoundingBox">
      <stop offset="0" stop-color="#ff3a44"/>
      <stop offset="1" stop-color="#c31162"/>
    </linearGradient>
    <linearGradient id="linear-gradient-5" x1="-0.186" y1="2.701" x2="0.423" y2="1.909" gradientUnits="objectBoundingBox">
      <stop offset="0" stop-color="#32a071"/>
      <stop offset="0.069" stop-color="#2da771"/>
      <stop offset="0.476" stop-color="#15cf74"/>
      <stop offset="0.801" stop-color="#06e775"/>
      <stop offset="1" stop-color="#00f076"/>
    </linearGradient>
  </defs>
  <g id="playstore" transform="translate(-141 -712)">
    <path id="Path_6" data-name="Path 6" d="M214.741,66.074H8.259A8.179,8.179,0,0,1,0,57.815V8.259A8.179,8.179,0,0,1,8.259,0H214.741A8.179,8.179,0,0,1,223,8.259V57.815A8.179,8.179,0,0,1,214.741,66.074Z" transform="translate(141 712)"/>
    <path id="Path_7" data-name="Path 7" d="M214.741,1.321a6.98,6.98,0,0,1,6.938,6.938V57.815a6.98,6.98,0,0,1-6.938,6.938H8.259a6.98,6.98,0,0,1-6.938-6.938V8.259A6.98,6.98,0,0,1,8.259,1.321Zm0-1.321H8.259A8.283,8.283,0,0,0,0,8.259V57.815a8.179,8.179,0,0,0,8.259,8.259H214.741A8.179,8.179,0,0,0,223,57.815V8.259A8.283,8.283,0,0,0,214.741,0Z" transform="translate(141 712)" fill="#a6a6a6"/>
    <path id="Path_29" data-name="Path 29" d="M866.96,0H755.916L799.41,66.074h67.55a7.82,7.82,0,0,0,7.814-7.805V7.809A7.821,7.821,0,0,0,866.96,0Z" transform="translate(-510.773 712)" fill="url(#linear-gradient)"/>
    <path id="Path_8" data-name="Path 8" d="M51.311,12.351a4.5,4.5,0,0,1-1.156,3.3,5.185,5.185,0,0,1-7.268,0A4.857,4.857,0,0,1,41.4,12.021a4.857,4.857,0,0,1,1.487-3.634A4.857,4.857,0,0,1,46.521,6.9a4.4,4.4,0,0,1,1.982.5A3.6,3.6,0,0,1,49.99,8.552l-.826.826a3.08,3.08,0,0,0-2.643-1.156,3.287,3.287,0,0,0-2.643,1.156,3.4,3.4,0,0,0-1.156,2.808,3.4,3.4,0,0,0,1.156,2.808,4.253,4.253,0,0,0,2.643,1.156,3.623,3.623,0,0,0,2.808-1.156,2.736,2.736,0,0,0,.826-1.982H46.521V11.69h4.79Zm7.6-4.13H54.45V11.36h4.13v1.156H54.45v3.139h4.46v1.321H53.128V7.065H58.91Zm5.451,8.755H63.039V8.221H60.231V7.065h6.938V8.221H64.361Zm7.6,0V7.065h1.321v9.911Zm6.938,0H77.576V8.221H74.767V7.065H81.54V8.221H78.732v8.755ZM94.59,15.655a5.185,5.185,0,0,1-7.268,0,4.857,4.857,0,0,1-1.487-3.634,4.857,4.857,0,0,1,1.487-3.634,5.185,5.185,0,0,1,7.268,0,4.857,4.857,0,0,1,1.487,3.634A4.857,4.857,0,0,1,94.59,15.655Zm-6.277-.826a3.9,3.9,0,0,0,2.643,1.156A3.287,3.287,0,0,0,93.6,14.829a3.985,3.985,0,0,0,1.156-2.808A3.4,3.4,0,0,0,93.6,9.213a3.9,3.9,0,0,0-2.643-1.156,3.287,3.287,0,0,0-2.643,1.156,3.985,3.985,0,0,0-1.156,2.808A3.4,3.4,0,0,0,88.313,14.829Zm9.581,2.147V7.065H99.38l4.79,7.764V7.065h1.321v9.911H104.17L99.05,8.882v8.094Z" transform="translate(167.987 716.498)" fill="#fff" stroke="#fff" stroke-miterlimit="10" stroke-width="0.2"/>
    <path id="Path_10" data-name="Path 10" d="M10.661,7.5A3.229,3.229,0,0,0,10,9.813V46.319a3.268,3.268,0,0,0,.826,2.313l.165.165L31.474,28.313v-.33Z" transform="translate(147.519 716.889)" fill="url(#linear-gradient-2)"/>
    <path id="Path_11" data-name="Path 11" d="M29.673,29.841,22.9,23.068v-.5L29.673,15.8l.165.165,8.094,4.625c2.313,1.321,2.313,3.469,0,4.79Z" transform="translate(155.927 722.299)" fill="url(#linear-gradient-3)"/>
    <path id="Path_12" data-name="Path 12" d="M37.986,26.938,31.048,20,10.4,40.648c.826.826,1.982.826,3.469.165Z" transform="translate(147.779 725.037)" fill="url(#linear-gradient-4)"/>
    <path id="Path_13" data-name="Path 13" d="M37.986,21.425,13.869,7.714c-1.487-.826-2.643-.661-3.469.165L31.048,28.362Z" transform="translate(147.779 716.675)" fill="url(#linear-gradient-5)"/>
    <path id="Path_14" data-name="Path 14" d="M37.821,24.1,13.869,37.645a2.7,2.7,0,0,1-3.3,0l-.165.165.165.165a2.7,2.7,0,0,0,3.3,0Z" transform="translate(147.779 727.71)" opacity="0.2"/>
    <path id="Path_15" data-name="Path 15" d="M10.661,40.318A3.229,3.229,0,0,1,10,38.005v.165a3.268,3.268,0,0,0,.826,2.313v-.165Zm35.68-18.17-8.259,4.625.165.165,8.094-4.625A2.746,2.746,0,0,0,47.993,20C47.993,20.826,47.332,21.487,46.341,22.147Z" transform="translate(147.519 725.037)" opacity="0.12"/>
    <path id="Path_16" data-name="Path 16" d="M14.13,7.9,46.341,26.231c.991.661,1.652,1.321,1.652,2.147a2.746,2.746,0,0,0-1.652-2.313L14.13,7.73C11.817,6.408,10,7.4,10,10.043v.165C10,7.73,11.817,6.574,14.13,7.9Z" transform="translate(147.519 716.659)" fill="#fff" opacity="0.25"/>
    <path id="Path_9" data-name="Path 9" d="M85.7,24.864a6.95,6.95,0,0,0-7.1,7.1,7.05,7.05,0,0,0,7.1,7.1,6.95,6.95,0,0,0,7.1-7.1A6.853,6.853,0,0,0,85.7,24.864Zm0,11.233A4.1,4.1,0,0,1,81.736,31.8,4.1,4.1,0,0,1,85.7,27.507,4,4,0,0,1,89.664,31.8,4.1,4.1,0,0,1,85.7,36.1ZM70.338,24.864a6.95,6.95,0,0,0-7.1,7.1,7.05,7.05,0,0,0,7.1,7.1,6.95,6.95,0,0,0,7.1-7.1A6.853,6.853,0,0,0,70.338,24.864Zm0,11.233A4.1,4.1,0,0,1,66.373,31.8a4.1,4.1,0,0,1,3.964-4.295A4,4,0,0,1,74.3,31.8,4.1,4.1,0,0,1,70.338,36.1ZM52,27.011v2.973h7.1a6.246,6.246,0,0,1-1.652,3.8A7.311,7.311,0,0,1,52,35.931,7.691,7.691,0,0,1,44.239,28,7.792,7.792,0,0,1,52,20.073a8.19,8.19,0,0,1,5.451,2.147L59.6,20.073A10.585,10.585,0,0,0,52.167,17.1,11.143,11.143,0,0,0,41.1,28,11.143,11.143,0,0,0,52.167,38.9a9.506,9.506,0,0,0,7.6-3.139,9.944,9.944,0,0,0,2.643-6.938,6.194,6.194,0,0,0-.165-1.817ZM127,29.324a6.418,6.418,0,0,0-5.947-4.46c-3.634,0-6.607,2.808-6.607,7.1a6.913,6.913,0,0,0,6.938,7.1,6.776,6.776,0,0,0,5.781-3.139l-2.313-1.652a4.026,4.026,0,0,1-3.469,1.982,3.584,3.584,0,0,1-3.469-2.147l9.416-3.964Zm-9.581,2.313a4.013,4.013,0,0,1,3.634-4.13,2.922,2.922,0,0,1,2.643,1.487Zm-7.764,6.773h3.139V17.761h-3.139ZM104.7,26.35a5.439,5.439,0,0,0-3.8-1.652,7.1,7.1,0,0,0-6.773,7.1,6.84,6.84,0,0,0,6.773,6.938,4.743,4.743,0,0,0,3.634-1.652h.165v.991c0,2.643-1.487,4.13-3.8,4.13a3.67,3.67,0,0,1-3.469-2.478l-2.643,1.156a6.815,6.815,0,0,0,6.277,4.13c3.634,0,6.607-2.147,6.607-7.268V25.194H104.7ZM101.062,36.1A4.1,4.1,0,0,1,97.1,31.8a4.1,4.1,0,0,1,3.964-4.295c2.147,0,3.8,1.817,3.8,4.295S103.21,36.1,101.062,36.1Zm40.305-18.336h-7.433V38.409h3.139V30.645h4.295a6.45,6.45,0,1,0,0-12.884Zm.165,9.911h-4.46v-7.1h4.46a3.628,3.628,0,0,1,3.634,3.469,3.78,3.78,0,0,1-3.634,3.634Zm19-2.973c-2.313,0-4.625.991-5.451,3.139l2.808,1.156a2.918,2.918,0,0,1,2.808-1.487A3.1,3.1,0,0,1,164,30.15v.165a6.552,6.552,0,0,0-3.139-.826c-2.973,0-5.947,1.652-5.947,4.625,0,2.808,2.478,4.625,5.121,4.625A4.648,4.648,0,0,0,164,36.757h.165v1.652h2.973V30.48a6.251,6.251,0,0,0-6.607-5.781Zm-.33,11.4c-.991,0-2.478-.5-2.478-1.817,0-1.652,1.817-2.147,3.3-2.147a6.388,6.388,0,0,1,2.808.661A3.847,3.847,0,0,1,160.2,36.1Zm17.344-10.9-3.469,8.92h-.165l-3.634-8.92h-3.3l5.451,12.554-3.139,6.938h3.139l8.424-19.492ZM149.792,38.409h3.139V17.761h-3.139Z" transform="translate(167.791 723.147)" fill="#fff"/>
  </g>
</svg>
