<svg xmlns="http://www.w3.org/2000/svg" width="30" height="33.391" viewBox="0 0 30 33.391">
  <g id="support" transform="translate(-26)">
    <g id="Group_13" data-name="Group 13" transform="translate(47.522 25.826)">
      <g id="Group_12" data-name="Group 12">
        <path id="Path_31" data-name="Path 31" d="M356.652,396a.652.652,0,1,0,.652.652A.652.652,0,0,0,356.652,396Z" transform="translate(-356 -396)" fill="#fff"/>
      </g>
    </g>
    <g id="Group_15" data-name="Group 15" transform="translate(26)">
      <g id="Group_14" data-name="Group 14">
        <path id="Path_32" data-name="Path 32" d="M49.78,23.717l-3.1-1.033-1.113-2.226A7.143,7.143,0,0,0,47.5,16.68l.139-.832h1.187a1.959,1.959,0,0,0,1.957-1.957V9.783a9.783,9.783,0,0,0-19.565,0v4.109a1.96,1.96,0,0,0,1.3,1.844V16.5a1.959,1.959,0,0,0,1.957,1.957h.573a7.075,7.075,0,0,0,1.094,1.694c.092.106.189.209.287.309L35.32,22.684l-3.1,1.033A9.613,9.613,0,0,0,26,32.739a.652.652,0,0,0,.652.652h28.7A.652.652,0,0,0,56,32.739,9.613,9.613,0,0,0,49.78,23.717Zm-.3-9.826a.653.653,0,0,1-.652.652h-1c.166-1.284.276-2.651.321-4,0-.038,0-.075,0-.112h1.323Zm-16.3.652a.653.653,0,0,1-.652-.652V10.435h1.324q0,.1.007.205v.007h0c.046,1.309.155,2.64.317,3.9h-1Zm1.3,2.609a.653.653,0,0,1-.652-.652v-.652h.535l.139.832c.026.158.059.316.1.472ZM33.827,9.13H32.547a8.479,8.479,0,0,1,16.907,0H48.173a6.605,6.605,0,0,0-6.589-6.522H40.416A6.605,6.605,0,0,0,33.827,9.13Zm6.589-5.217h1.167A5.3,5.3,0,0,1,46.87,9.222c0,.205,0,.384-.005.547,0,0,0,0,0,.006l-.816-.117a10.48,10.48,0,0,1-5.892-2.946.652.652,0,0,0-.461-.191,5.9,5.9,0,0,0-4.536,2.146A5.3,5.3,0,0,1,40.416,3.913ZM35.948,17.152a37.278,37.278,0,0,1-.783-6.33l.878-1.17a4.591,4.591,0,0,1,3.395-1.819,11.8,11.8,0,0,0,6.426,3.116l.96.137c-.064,1.362-.2,2.729-.383,3.986h0c-.06.4-.107.664-.227,1.391a5.54,5.54,0,0,1-3.932,4.455,5.131,5.131,0,0,1-5.76-2.464h1.33a1.96,1.96,0,0,0,1.844,1.3H41a1.957,1.957,0,0,0,0-3.913H39.7a1.957,1.957,0,0,0-1.845,1.3Zm3.693,5.088a6.541,6.541,0,0,0,2.426.055l-1.152,1.219Zm.377,2.222-2.069,2.188a24.849,24.849,0,0,1-1.46-3.386l.777-1.554Zm4.606-2.973.887,1.774a24.842,24.842,0,0,1-1.46,3.387l-2.214-2.214ZM39.043,17.8a.652.652,0,0,1,.652-.652H41a.652.652,0,0,1,0,1.3H39.7A.653.653,0,0,1,39.043,17.8ZM27.33,32.087a8.242,8.242,0,0,1,5.3-7.132l2.745-.915a26.143,26.143,0,0,0,1.856,4.027l0,.007h0A26.151,26.151,0,0,0,39.023,30.8l.8,1.288ZM41,31.506l-.884-1.42q-.015-.024-.032-.046a24.866,24.866,0,0,1-1.469-2.2l2.326-2.46,2.451,2.451a24.839,24.839,0,0,1-1.475,2.2C41.884,30.082,41.93,30.015,41,31.506Zm1.175.581.8-1.288a26.141,26.141,0,0,0,1.8-2.748l.01-.017v0a26.123,26.123,0,0,0,1.837-3.992l2.745.915a8.242,8.242,0,0,1,5.3,7.132Z" transform="translate(-26)" fill="#fff"/>
      </g>
    </g>
    <g id="Group_17" data-name="Group 17" transform="translate(49.813 27.071)">
      <g id="Group_16" data-name="Group 16">
        <path id="Path_33" data-name="Path 33" d="M394.035,417.465a6.52,6.52,0,0,0-1.846-2.241.652.652,0,1,0-.8,1.034,5.209,5.209,0,0,1,1.475,1.79.652.652,0,0,0,1.167-.583Z" transform="translate(-391.139 -415.088)" fill="#fff"/>
      </g>
    </g>
  </g>
</svg>
